<svg xmlns="http://www.w3.org/2000/svg" viewBox="0 0 750 500"><g id="freepik--Birds--inject-10"><g><path d="M252.829,80.0558s.5541-7.8505,2.0194-9.0762c1.4652-1.2257,10.4293-4.2046,10.4293-4.2046,0,0-3.5462,12.1017-5.701,13.498-2.1549,1.3964-6.7477-.2172-6.7477-.2172Z" style="fill:#FE8216;"></path><path d="M265.2777,66.775h0c-.1108,.3724-3.5832,12.1327-5.7011,13.498-1.4202,.622-2.9472,.7506-4.4204,.3724-.7842-.1395-1.5613-.3363-2.3273-.5896,0,0,.5664-7.866,2.0194-9.0762s9.6044-3.9408,10.3801-4.189h0l.0493-.0156Z" style="fill:#fff; opacity:.6;"></path><path d="M248.2607,75.3393c2.0317,0,6.6615,2.7927,8.1883,2.9323,1.5269,.1396,9.1119-6.4387,10.7372-7.5247,1.6254-1.0861,15.9212-3.5064,15.9212-3.5064,0,0-9.4813,12.2258-15.9212,12.5826,0,0,4.7653,1.6756,6.1567,1.2257,4.4108-1.1457,5.2611-1.607,9.7645-1.5546l-5.1716,3.525,7.7451,1.1946c-3.5839,.8032-7.2389,.9755-10.8604,.512-2.7675,1.2778-5.6131,2.2689-8.5085,2.9634-4.03,1.3018-8.3113,.1977-11.6114-2.9944-2.7829-2.8392-11.9563-6.0508-11.9563-6.0508l3.1276-1.3964c.455-1.1436,1.3738-1.8776,2.3888-1.9083Z" style="fill:#FE8216;"></path><path d="M248.2607,75.3393c2.0317,0,6.6615,2.7927,8.1883,2.9323,1.5269,.1396,9.1119-6.4387,10.7372-7.5247,1.6254-1.0861,15.9212-3.5064,15.9212-3.5064,0,0-9.4813,12.2258-15.9212,12.5826,0,0,4.7653,1.6756,6.1567,1.2257,4.4108-1.1457,5.2611-1.607,9.7645-1.5546l-5.1716,3.525,7.7451,1.1946c-3.5839,.8032-7.2389,.9755-10.8604,.512-2.7675,1.2778-5.6131,2.2689-8.5085,2.9634-4.03,1.3018-8.3113,.1977-11.6114-2.9944-2.7829-2.8392-11.9563-6.0508-11.9563-6.0508l3.1276-1.3964c.455-1.1436,1.3738-1.8776,2.3888-1.9083Z" style="fill:#fff; opacity:.8;"></path><polygon points="245.8104 77.2942 246.6969 78.1009 246.1674 80.0558 242.7443 78.644 245.8104 77.2942" style="fill:#263238;"></polygon><path d="M249.6683,78.1551c0,.5183-.3334,.9385-.7448,.9385-.4113,0-.7448-.4202-.7448-.9385s.3335-.9384,.7448-.9384c.4114,0,.7448,.4201,.7448,.9384Z" style="fill:#263238;"></path></g><g><g><path d="M222.0037,111.8539c1.4784-1.2397,7.5667,7.5283,10.4428,8.6243-2.047,.9413-4.2659,.9791-6.3302,.1078-3.1718-1.4913-5.6717-7.4384-4.1126-8.7321Z" style="fill:#FE8216;"></path><path d="M232.4465,120.4782c-2.0475,.9322-4.2629,.9762-6.3302,.1258-3.1718-1.4913-5.6717-7.4564-4.1126-8.7501,.3494-.3054,.9542,0,1.7203,.557,2.4595,1.9225,6.5318,7.2228,8.7225,8.0673Z" style="fill:#fff; opacity:.6;"></path><path d="M217.2056,110.165c1.4918-.4492,5.2147,.9343,6.3571,.7726,1.1424-.1618,8.064-.7906,8.064-.7906,1.9117-.2924,3.2807-.3713,4.8207-.7288,3.1163-1.7132,6.2031-2.447,9.5198-3.242l-6.0883,4.4559,5.7926-.4492c-2.5502,1.3028-5.2234,2.1252-7.9431,2.4436-1.897,1.4979-3.8787,2.7955-5.927,3.8809-2.8186,1.7763-6.0933,1.7099-8.8704-.1797-2.3654-1.6889-9.4751-2.4974-9.4751-2.4974l2.1504-1.671c.2025-1.0201,.824-1.7951,1.5993-1.9943Z" style="fill:#FE8216;"></path><path d="M217.2056,110.165c1.4918-.4492,5.2147,.9343,6.3571,.7726,1.1424-.1618,8.064-.7906,8.064-.7906,1.9117-.2924,3.2807-.3713,4.8207-.7288,3.1163-1.7132,6.2031-2.447,9.5198-3.242l-6.0883,4.4559,5.7926-.4492c-2.5502,1.3028-5.2234,2.1252-7.9431,2.4436-1.897,1.4979-3.8787,2.7955-5.927,3.8809-2.8186,1.7763-6.0933,1.7099-8.8704-.1797-2.3654-1.6889-9.4751-2.4974-9.4751-2.4974l2.1504-1.671c.2025-1.0201,.824-1.7951,1.5993-1.9943Z" style="fill:#fff; opacity:.8;"></path><polygon points="215.566 112.1594 216.3051 112.6085 216.1305 114.2256 213.4156 113.8303 215.566 112.1594" style="fill:#263238;"></polygon><path d="M225.2427,111.0095c2.688-1.9046,18.1977,6.3783,24.5683,6.7556-4.2693,1.7832-8.7484,2.4959-13.2115,2.1022-7.1635-.7366-14.2195-6.8635-11.3568-8.8578Z" style="fill:#FE8216;"></path><ellipse cx="217.5956" cy="112.3703" rx=".5911" ry=".7448" style="fill:#263238;"></ellipse></g><path d="M225.2427,111.0095c2.688-1.9046,18.1977,6.3783,24.5683,6.7556-4.2693,1.7832-8.7484,2.4959-13.2115,2.1022-7.1635-.7366-14.2195-6.8635-11.3568-8.8578Z" style="fill:#fff; opacity:.8;"></path></g></g><g id="freepik--Sun--inject-10"><g><path d="M566.64169,88.2282c0,2.6902-3.8905,4.827-4.5545,7.3042-.664,2.4774,1.592,6.3594,.298,8.5983-1.294,2.239-5.7548,2.1964-7.6021,4.0352-1.8474,1.8388-1.7622,6.2912-4.0353,7.6023-2.273,1.311-6.03579-.979-8.5983-.298-2.5624,.6811-4.6226,4.5545-7.3042,4.5545s-4.827-3.8905-7.30429-4.5545c-2.47721-.664-6.35071,1.6005-8.59831,.298-2.2474-1.3025-2.1878-5.7549-4.0352-7.6023-1.8473-1.8473-6.2827-1.7537-7.6021-4.0352-1.3196-2.2815,.9789-6.0613,.2978-8.6153-.681-2.5539-4.5545-4.6141-4.5545-7.3043s3.8905-4.8184,4.5545-7.2957c.664-2.4774-1.5919-6.3593-.2979-8.5982,1.294-2.239,5.7549-2.1965,7.6022-4.0438s1.7622-6.2827,4.0352-7.6023c2.273-1.3194,6.0358,.9876,8.59831,.298,2.56239-.6895,4.62259-4.546,7.30419-4.546s4.827,3.8905,7.3043,4.546c2.4773,.6556,6.3508-1.592,8.5983-.298s2.1879,5.755,4.03521,7.6023c1.84739,1.8473,6.28269,1.7622,7.60209,4.0438,1.3196,2.2815-.979,6.0357-.2979,8.5982,.681,2.5624,4.5545,4.6311,4.5545,7.3128Z" style="fill:#FE8216;"></path><path d="M566.64169,88.2282c0,2.6902-3.8905,4.827-4.5545,7.3042-.664,2.4774,1.592,6.3594,.298,8.5983-1.294,2.239-5.7548,2.1964-7.6021,4.0352-1.8474,1.8388-1.7622,6.2912-4.0353,7.6023-2.273,1.311-6.03579-.979-8.5983-.298-2.5624,.6811-4.6226,4.5545-7.3042,4.5545s-4.827-3.8905-7.30429-4.5545c-2.47721-.664-6.35071,1.6005-8.59831,.298-2.2474-1.3025-2.1878-5.7549-4.0352-7.6023-1.8473-1.8473-6.2827-1.7537-7.6021-4.0352-1.3196-2.2815,.9789-6.0613,.2978-8.6153-.681-2.5539-4.5545-4.6141-4.5545-7.3043s3.8905-4.8184,4.5545-7.2957c.664-2.4774-1.5919-6.3593-.2979-8.5982,1.294-2.239,5.7549-2.1965,7.6022-4.0438s1.7622-6.2827,4.0352-7.6023c2.273-1.3194,6.0358,.9876,8.59831,.298,2.56239-.6895,4.62259-4.546,7.30419-4.546s4.827,3.8905,7.3043,4.546c2.4773,.6556,6.3508-1.592,8.5983-.298s2.1879,5.755,4.03521,7.6023c1.84739,1.8473,6.28269,1.7622,7.60209,4.0438,1.3196,2.2815-.979,6.0357-.2979,8.5982,.681,2.5624,4.5545,4.6311,4.5545,7.3128Z" style="fill:#fff; opacity:.7;"></path><circle cx="534.84379" cy="88.22445" r="22.72152" transform="translate(334.17454 591.78506) rotate(-77.63949)" style="fill:#FE8216;"></circle></g></g><g id="freepik--Character--inject-10"><g><g><path d="M302.2186,224.6665l34.1356,3.7945s25.17281-28.0682,25.17281-27.3939c0,.6742,9.18179,27.1056,9.18179,27.1056,0,0-21.993,21.3491-29.1852,23.4183-7.1922,2.0691-40.4024-14.2934-40.4024-14.2934l1.0974-12.6311Z" style="fill:#ffc3bd;"></path><path d="M307.0599,226.8474s-11.6253-8.5058-14.6979-7.3669c-3.0724,1.1385-18.0551,3.2313-16.1985,7.2528,.2397,.5193,5.5239,.0882,5.6736,.5372,.1566,.4703-3.2483,.7144-4.4447,1.9812-1.551,1.6421,1.8338,6.9569,4.4071,6.804,5.6452-.3353,9.9731-1.2912,9.9731-1.2912,0,0,7.0292,4.5609,11.9182,3.5636,4.8888-.9975,3.3691-11.4807,3.3691-11.4807Z" style="fill:#ffc3bd;"></path><path d="M301.29785,234.2041c-3.65967,0-7.16455-2.59229-8.26904-6.07324-2.60254,.94922-5.3208,1.53613-8.08447,1.74512-.80322,.06006-1.69922,.04004-2.27051-.56934-.62695-.66895-.49219-1.74219-.04736-2.4126,.44971-.67773,1.15869-1.10303,1.84668-1.48047,3.06348-1.68262,6.33447-2.97168,9.72217-3.83057,.1333-.03467,.26953,.04688,.30371,.18066s-.04688,.27002-.18066,.30371c-3.34668,.84912-6.57812,2.12207-9.60498,3.78467-.63281,.34766-1.28369,.73535-1.66992,1.31836-.33887,.51074-.45605,1.31299-.00439,1.79443,.42627,.45508,1.18311,.46631,1.86768,.41211,2.80518-.21191,5.56348-.81982,8.19727-1.80713,.06543-.02441,.13867-.02002,.20117,.01074,.0625,.03174,.10889,.08838,.12744,.15576,.95068,3.40283,4.33203,5.96777,7.86523,5.96777,.12256-.01904,.25293,.11084,.25293,.25,0,.13818-.11182,.25-.25,.25h-.00293Z" style="opacity:.2;"></path><path d="M292.362,219.4805s-14.9008,.4857-15.9536,1.9904c-1.0527,1.5049,6.4929,.9699,6.4929,.9699l9.4607-2.9603Z" style="fill:#ffc3bd;"></path><polygon points="284.5454 239.6145 284.3483 242.6174 287.3655 242.7222 287.1177 240.1052 284.5454 239.6145" style="fill:#b97964;"></polygon><polygon points="286.4202 251.1675 285.4907 252.7667 286.256 254.7368 289.2403 254.2752 288.9925 251.6582 286.4202 251.1675" style="fill:#b97964;"></polygon><polygon points="290.9674 260.1321 289.7884 259.6082 288.48 260.2875 289.0251 262.322 290.8211 261.9528 290.9674 260.1321" style="fill:#b97964;"></polygon><polygon points="290.3105 243.7965 290.9232 243.3568 290.9674 242.4962 289.7802 242.1697 289.4355 243.1846 290.3105 243.7965" style="fill:#b97964;"></polygon></g><g><path d="M478.02246,332.12109c-.0127,0-.02441,0-.03613-.00098-.27539-.01953-.4834-.25879-.46387-.53418,.41211-5.82812,.83691-11.85449-.58398-17.60742-1.55859-6.30957-5.38086-11.26758-10.22559-13.26367-.25488-.10449-.37695-.39746-.27148-.65234,.10547-.25586,.39746-.37793,.65234-.27148,5.1377,2.11621,9.18066,7.33008,10.81543,13.94727,1.45898,5.90625,1.02832,12.0127,.61133,17.91797-.01855,.26367-.23828,.46484-.49805,.46484Z" style="fill:#263238;"></path><path d="M455.23229,243.0681l2.24671,47.2247h11.60389s8.4142-40.2513,5.7356-51.5411l-19.5862,4.3164Z" style="fill:#ffc3bd;"></path><path d="M442.78459,329.518l3.5026-4.1539c3.1522-1.4011,6.606-.7005,6.606-.7005,0,0,2.6651-.5254,3.8087-2.2767l1.1436-1.7513h0s.1752-1.7512,3.6777,0l3.5025,1.7513s-2.9771-.7005,0,0c2.9772,.7005,4.028,0,4.028,0l5.2538-.7005,3.8212,1.2259,1.2575,1.7754s3.81281-.5082,4.5533,0c1.7512,1.2017,2.6269,4.8303,2.6269,4.8303h-43.7818Z" style="fill:#b97964;"></path><g><path d="M438.84589,329.518c0,1.563,8.8198,46.6278,9.5758,46.3673s33.0115,0,33.0115,0l9.0719-46.3673h-51.6592Z" style="fill:#263238;"></path><path d="M438.84589,329.518c0,1.563,8.8198,46.6278,9.5758,46.3673s33.0115,0,33.0115,0l9.0719-46.3673h-51.6592Z" style="fill:#fff; opacity:.5;"></path></g><path d="M450.83301,330.99902c-.24023,0-.45215-.17383-.49219-.41895-1.67969-10.24316,.77441-20.99316,6.73438-29.49219,.15723-.22656,.47266-.28027,.69629-.12207,.22559,.1582,.28125,.46973,.12207,.69629-5.81055,8.28711-8.2041,18.76855-6.56641,28.75586,.04492,.27246-.13965,.5293-.41211,.57422-.02734,.00488-.05469,.00684-.08203,.00684Z" style="fill:#263238;"></path><path d="M454.52839,305.8248s1.7704,6.8991,2.9679,6.8837,4.80771-1.0487,6.1088-3.3396c0,0,3.5766-.1635,4.3337-3.3595l.2104-2.0764s3.1223,2.1314,4.7434-2.6369c1.6212-4.7684-1.6274-11.4195-3.3084-15.2309-1.68119-3.8114-12.345-2.5543-12.345-2.5543l-.2631,6.1507c-4.4464,5.5611-5.2919,18.8928-5.02509,19.2464l2.57739-3.0832Z" style="fill:#ffc3bd;"></path></g><path d="M397.98469,194.7996c-3.1914,28.3062-42.1598,52.2514-42.1598,52.2514-8.26189-.906-16.4004-14.5835-17.56389-23.5364,0,0,23.90959-33.4674,36.03769-40.0889,11.22831-6.1301,25.1391-1.5152,23.686,11.3739Z" style="fill:#263238;"></path><path d="M384.69239,178.5395c14.8979-1.5534,34.7951-1.3669,50.2337,.7987,9.636,1.3517,16.439,7.3488,15.2712,27.0853-2.3689,40.0346-3.7688,71.8147-8.8645,86.2092,0,0-63.7405,20.1887-84.8705-.1604-5.1371-48.1821,6.8525-87.6982,14.7432-104.3519,2.52351-5.3256,7.6254-8.9698,13.4869-9.5809Z" style="fill:#263238;"></path><path d="M439.05209,180.3445c26.8826,9.4207,41.5391,52.7462,41.5391,52.7462-2.7249,7.8521-17.8724,12.7371-26.8593,11.8756,0,0-27.2958-30.7682-31.0472-44.0671-3.4732-12.3122,4.1264-24.8443,16.3674-20.5547Z" style="fill:#263238;"></path><g><g><path d="M408.92559,117.596c-9.8641,1.7826-22.1073,14.0932-22.1073,14.0932,0,0-.12729,10.7722,11.3575,18.1431,11.4848,7.3708,20.6229,7.2177,25.4563,2.6797,3.9948-3.7507,3.3374-18.436,2.9891-23.4185-.08819-1.2624-.5185-2.4923-1.3145-3.476-1.7286-2.1363-4.2552-3.5654-7.0835-3.9421,0,0-2.7665-5.1457-9.2976-4.0794Z" style="fill:#FE8216;"></path><path d="M408.92559,117.596c-9.8641,1.7826-22.1073,14.0932-22.1073,14.0932,0,0-.12729,10.7722,11.3575,18.1431,11.4848,7.3708,20.6229,7.2177,25.4563,2.6797,3.9948-3.7507,3.3374-18.436,2.9891-23.4185-.08819-1.2624-.5185-2.4923-1.3145-3.476-1.7286-2.1363-4.2552-3.5654-7.0835-3.9421,0,0-2.7665-5.1457-9.2976-4.0794Z" style="opacity:.2;"></path><path d="M401.31869,120.5453c.2841-.1559,18.2447,3.8578,25.5701,15.9638l-.0123,3.4635-27.8188-18.0861,2.261-1.3412Z" style="opacity:.2;"></path><path d="M393.65729,120.541c-20.4029-3.0388-22.8629,22.5271-.6901,36.0997,22.1729,13.5725,45.8163,11.7345,45.4151,2.6132-.4562-10.3733-13.5715-34.032-44.725-38.7129Z" style="fill:#FE8216;"></path><path d="M423.54129,146.5524s3.0746,5.2871,3.3936,9.8179c.43611,6.1951-5.3335,9.9633-5.3335,9.9633l-4.6417-.5334,.6035-7.9225,5.9781-11.3253Z" style="opacity:.2;"></path></g><path d="M393.40819,135.6222c-5.467,4.1315-7.569,6.232-7.569,6.232,0,0,1.595,.4904,2.6745,.0047-2.2574,3.9307-1.374,9.3043-.2453,10.8991,5.5698-5.2263,5.1398-17.1358,5.1398-17.1358Z" style="fill:#263238;"></path><path d="M393.40819,135.6222c-5.467,4.1315-7.569,6.232-7.569,6.232,0,0,1.595,.4904,2.6745,.0047-2.2574,3.9307-1.374,9.3043-.2453,10.8991,5.5698-5.2263,5.1398-17.1358,5.1398-17.1358Z" style="fill:#fff; opacity:.5;"></path><path d="M420.02869,177.9142c-3.7256-3.3411-3.5561-9.0656-3.1068-17.4768l-22.8611,12.3346c1.1761,2.3468,1.4718,4.4828,1.0578,6.5237l5.5526,10.8442s19.8372-11.5727,19.3575-12.2257Z" style="fill:#ffc3bd;"></path><path d="M394.397,173.4862l18.05059-4.5152c-4.5584,7.1758-12.7742,11.1019-17.18859,9.3667,.13759-1.5425-.12371-3.1387-.862-4.8515Z" style="opacity:.2;"></path><path d="M401.86989,132.3298c8.7423,.8617,21.0173,8.6284,19.9459,18.0852-1.2447,10.9882-4.1322,18.1089-11.6117,21.7915-14.8608,7.3162-22.1175,.2589-23.3306-11.0453-1.092-10.1749,2.6386-30.0494,14.9964-28.8314Z" style="fill:#ffc3bd;"></path><path d="M416.85,139.2966c.56779,4.7265-.10471,9.3299-2.63921,10.6105,3.4033,.1029,4.63021-.5563,4.63021-.5563,0,0-6.043,4.5849-1.991,7.5294,4.64089-2.65,7.76519-7.1483,7.76519-7.1483,0,0-.78519-6.0894-7.76519-10.4353Z" style="fill:#263238;"></path><path d="M406.06679,149.8617s2.3841-.8173,4.1647,.2991c-2.2918,.2901-4.1647-.2991-4.1647-.2991Z" style="opacity:.2;"></path><path d="M406.062,150.8583s2.28309-.2772,3.58789,1.2053c-2.0798-.2185-3.58789-1.2053-3.58789-1.2053Z" style="opacity:.2;"></path><path d="M395.30479,150.3791l.0537,8.105s-2.6088,.645-4.1553-.7723c.8746-4.1493,4.1016-7.3327,4.1016-7.3327Z" style="fill:#ed847e;"></path><path d="M416.85,139.2966c-4.09421-.1808-14.98841-3.2725-14.98841-3.2725,0,0,1.5222-1.0795,3.2148-1.2268-5.4722,.0981-8.3961,2.7972-16.0862,1.2759,1.143-2.061,7.2703-5.1403,15.2972-3.7969,8.0268,1.3433,12.56261,7.0203,12.56261,7.0203Z" style="fill:#263238;"></path><path d="M416.85,139.2966c.56779,4.7265-.10471,9.3299-2.63921,10.6105,3.4033,.1029,4.63021-.5563,4.63021-.5563,0,0-6.043,4.5849-1.991,7.5294,4.64089-2.65,7.76519-7.1483,7.76519-7.1483,0,0-.78519-6.0894-7.76519-10.4353Z" style="fill:#fff; opacity:.5;"></path><path d="M416.85,139.2966c-4.09421-.1808-14.98841-3.2725-14.98841-3.2725,0,0,1.5222-1.0795,3.2148-1.2268-5.4722,.0981-8.3961,2.7972-16.0862,1.2759,1.143-2.061,7.2703-5.1403,15.2972-3.7969,8.0268,1.3433,12.56261,7.0203,12.56261,7.0203Z" style="fill:#fff; opacity:.5;"></path><path d="M424.94369,158.3452c-1.1328,2.7627-3.4405,4.7315-5.7251,5.625-3.4367,1.3446-4.3462-2.3634-3.7271-5.8117,.5573-3.1037,1.807-6.834,5.4178-6.7046,3.5576,.1279,5.3295,3.733,4.0344,6.8913Z" style="fill:#ffc3bd;"></path><path d="M404.25719,150.1648c-.0997,1.1288-.7791,1.9854-1.5178,1.9129-.7382-.0725-1.2561-1.0467-1.15639-2.1756,.09959-1.1291,.77919-1.9855,1.51739-1.9129,.7384,.0724,1.2563,1.0464,1.1568,2.1756Z" style="fill:#263238;"></path><path d="M392.87549,149.3379c-.09949,1.129-.7789,1.9852-1.5173,1.9129-.7384-.0727-1.25619-1.0466-1.1567-2.1756,.0996-1.1291,.7791-1.9856,1.5174-1.9128,.7384,.0726,1.2564,1.0466,1.1566,2.1755Z" style="fill:#263238;"></path><path d="M406.72419,145.0183c-.1767,.0546-.3776,.0152-.5237-.1213-1.73749-1.62-3.6428-1.1867-3.6618-1.1824-.2849,.0681-.5738-.1067-.6448-.3904-.0708-.2837,.1038-.5692,.3869-.6379,.1005-.0246,2.4881-.5685,4.64321,1.4424,.21529,.2004,.22759,.5354,.02809,.7477-.0648,.0689-.1433,.1159-.2279,.1419Z" style="fill:#263238;"></path><path d="M417.04329,154.5048s-1.49029-1.4032-3.2569,.9523c-1.7667,2.3554-.3055,5.729-5.6279,4.1455-4.5638-1.3577-6.4373-1.9549-9.1809,.1145-5.2959-.5197-10.1879,.1092-11.4147,.9435-1.1777-1.5638-.7912-3.8786-.6673-7.3159-1.65059,6.9864-3.8617,13.0116-1.8334,15.6263,0,0,.5607-1.0493,.9019-1.3439-.00209,3.1898,2.2062,6.9781,4.9052,8.5483,.3339-1.1614,.3339-1.963,.3339-1.963,0,0,2.5209,1.422,7.91381,1.2996-.28681,.5868-.71461,1.277-1.263,1.6026,1.75019-.1828,5.28989-1.1174,7.39519-2.3114,.2736-.0537,.5355-.0976,.8176-.1586-.6229,.9324-.7373,1.8157-.5574,2.6336,9.4675-2.6298,10.7042-11.5672,9.99461-15.0982-.789-3.9263,1.53929-7.6752,1.53929-7.6752Z" style="fill:#263238;"></path><path d="M417.04329,154.5048s-1.49029-1.4032-3.2569,.9523c-1.7667,2.3554-.3055,5.729-5.6279,4.1455-4.5638-1.3577-6.4373-1.9549-9.1809,.1145-5.2959-.5197-10.1879,.1092-11.4147,.9435-1.1777-1.5638-.7912-3.8786-.6673-7.3159-1.65059,6.9864-3.8617,13.0116-1.8334,15.6263,0,0,.5607-1.0493,.9019-1.3439-.00209,3.1898,2.2062,6.9781,4.9052,8.5483,.3339-1.1614,.3339-1.963,.3339-1.963,0,0,2.5209,1.422,7.91381,1.2996-.28681,.5868-.71461,1.277-1.263,1.6026,1.75019-.1828,5.28989-1.1174,7.39519-2.3114,.2736-.0537,.5355-.0976,.8176-.1586-.6229,.9324-.7373,1.8157-.5574,2.6336,9.4675-2.6298,10.7042-11.5672,9.99461-15.0982-.789-3.9263,1.53929-7.6752,1.53929-7.6752Z" style="fill:#fff; opacity:.5;"></path><path d="M398.7373,161.84766c-.17188,0-.34668-.00781-.52441-.0249-.1377-.01318-.23828-.13525-.22559-.27295,.01367-.1377,.13477-.23682,.27246-.2251,1.54199,.14941,2.94043-.38965,4.69043-1.79639,.10742-.08643,.26562-.06885,.35059,.03809,.08691,.10742,.07031,.26514-.03809,.35156-1.20117,.96631-2.66602,1.92969-4.52539,1.92969Z" style="fill:#263238;"></path><path d="M417.36426,159.02148c-.0166,0-.0332-.00146-.0498-.00488-.13477-.02783-.22266-.15967-.19531-.29492,.2002-.98389,.65723-1.90283,1.32227-2.65771,.44824-.50977,1.18652-1.14795,2.1543-1.29736,.95508-.14746,1.90137,.27539,2.31641,1.02441,.06641,.12061,.02344,.27295-.09766,.33984-.12012,.06641-.27246,.02344-.33984-.09766-.31055-.56055-1.06934-.88477-1.80273-.77246-.81934,.12646-1.46094,.68604-1.85547,1.1333-.60742,.68945-1.02441,1.52881-1.20703,2.42725-.02441,.11865-.12891,.2002-.24512,.2002Z" style="opacity:.2;"></path><path d="M387.93809,144.1412c-.0962-.0298-.185-.0875-.2539-.172-.1859-.2277-.1548-.5631,.0702-.7487,2.2567-1.862,4.5815-1.1245,4.6899-1.105,.2785,.09,.4342,.3893,.3473,.669-.08659,.2789-.3804,.4326-.6578,.346-.0957-.0345-1.89379-.5793-3.7054,.9151-.1416,.1171-.3267,.1467-.4903,.0956Z" style="fill:#263238;"></path></g><path d="M355.82489,247.051l2.3184-33.1543-7.2696,31.1677s2.6329,2.2029,4.9512,1.9866Z" style="opacity:.2;"></path><path d="M448.28779,238.6214l-7.6736-18.2909s5.9659,29.7971,6.8593,30.2357l.8143-11.9448Z" style="opacity:.2;"></path><g><path d="M390.46349,375.8418c7.0229-27.065,25.3733-59.3282,13.7697-85.3896l-51.4835-13.7103s-.1828,67.1979-.5298,92.5134c-.3647,26.322,5.2057,59.1065,5.2057,59.1065l28.276,.3007s3.1159-22.442,4.7619-52.8207Z" style="fill:#FE8216;"></path><path d="M404.40809,316.0867c.2356,6.2545-.0942,12.685-.7772,19.1627-2.4616,8.5145-5.6062,17.0417-8.4328,25.3096-3.69809-23.4137-3.7099-50.7022,9.21-44.4723Z" style="opacity:.2;"></path><path d="M443.29409,367.084c2.4462-27.3648,3.04691-66.9417,3.3333-91.7456l-55.4969,13.6218s6.5904,55.8887,11.5236,81.1359c5.12591,26.2515,10.921,58.6345,10.921,58.6345l28.4781,1.088s2.6651-29.3135,1.2409-62.7346Z" style="fill:#FE8216;"></path><path d="M446.388,292.8587s1.40819-12.8956,1.70759-27.1331c.0615-2.9266-1.087-5.6573-2.996-7.0033-7.8872-5.5612-14.08059-17.2964-14.7648-31.7957-.1686-3.5732-1.8283-6.6876-4.3006-7.9056-18.724-9.224-45.3206-7.2791-56.3564-4.1569-2.8791,.8145-5.013,4.1156-5.1966,8.1126-.55119,12.0067-2.5544,30.3422-7.9457,34.313-1.5779,1.1621-2.8028,3.0616-3.1343,5.4627-1.7934,12.9946,.4139,26.6116,.4139,26.6116,0,0,34.5671,11.3578,92.57291,3.4947Z" style="fill:#FE8216;"></path><path d="M377.64769,220.4553l-7.26269,.4535c-1.00921,.0629-1.89811-.5596-1.97531-1.3835h0c-.0771-.8239,.6854-1.5496,1.6946-1.6126l7.26271-.4535c1.00919-.0629,1.89809,.5596,1.97519,1.3835h0c.0772,.8239-.6853,1.5496-1.6945,1.6126Z" style="fill:#fff;"></path><path d="M371.48129,224.8453l.213-6.7582c.0295-.9391,.9804-1.7729,2.1129-1.853h0c1.1326-.08,2.035,.6229,2.0054,1.562l-.2129,6.7582c-.0296,.9391-.9804,1.7729-2.1129,1.853h0c-1.1326,.08-2.035-.6229-2.0055-1.562Z" style="fill:#fff;"></path><path d="M382.858,178.2843c-2.34851,2.3012-11.48071,12.843-12.14911,40.7727-.0051,.2126,.1909,.4028,.4509,.4146,1.6341,.074,3.9834-.1303,4.937-.2238,.2456-.024,.42521-.1871,.4261-.389,.0142-3.0804,.4983-26.0781,11.6063-40.7243,.2074-.2735-.042-.6161-.4358-.6054-2.3579,.0638-4.1439,.5075-4.6243,.6385-.0859,.0234-.1532,.06-.21109,.1167Z" style="fill:#FE8216;"></path><g><path d="M423.10279,223.7805l-7.1089-1.3164c-.9878-.1829-1.6156-1.0029-1.395-1.8222h0c.2205-.8194,1.20911-1.3401,2.1969-1.1572l7.109,1.3164c.9878,.183,1.6156,1.003,1.3951,1.8223h0c-.2205,.8194-1.2093,1.3401-2.1971,1.1571Z" style="fill:#fff;"></path><path d="M417.44919,227.6736l.2957-6.898c.04111-.9585,.9953-1.7501,2.1205-1.7591h0c1.1252-.009,2.0122,.7679,1.9711,1.7264l-.2957,6.898c-.041,.9585-.9952,1.7502-2.1205,1.7592h0c-1.1251,.009-2.0121-.7679-1.9711-1.7265Z" style="fill:#fff;"></path><path d="M427.68659,177.8939c-2.3282,2.0079-9.93559,13.9942-10.6432,42.9157-.0042,.1682,.1092,.3269,.2972,.3901,1.5128,.5089,3.755,.9253,4.7887,1.1028,.2944,.0505,.56971-.1293,.5836-.3785,.2166-3.902,2.0022-31.031,10.3004-42.9183,.15571-.2231,.0246-.5068-.2718-.5843-2.3293-.6089-4.1393-.648-4.7216-.6421-.1298,.0013-.2433,.037-.3333,.1146Z" style="fill:#FE8216;"></path></g><path d="M374.03239,287.2183c-2.7971-.8833-4.711-.638-4.711-.638-1.423,3.8278-.7361,11.291,0,12.6629,3.4843,1.2248,4.711,.8427,4.711,.8427" style="fill:#FE8216;"></path><path d="M355.67389,353.9851c-1.21589,0-2.2064,.4871-3.2952,1.1861-.3143,13.6558-.2389,26.3837,.77631,38.1171,.80769,.3648,1.65119,.5581,2.51889,.5581,5.8957,0,10.67511-8.9233,10.67511-19.9306s-4.77941-19.9307-10.67511-19.9307Z" style="opacity:.2;"></path><path d="M403.51909,356.4003c-1.1997,.1973-2.00009,.7937-2.961,1.6601,2.2817,13.3826,4.8222,25.984,6.8543,37.5308,.8561,.2288,1.7198,.2827,2.576,.1419,5.81761-.9569,9.0854-10.5375,7.2989-21.3989-1.7864-10.8615-7.9507-18.8907-13.7682-17.9339Z" style="opacity:.2;"></path><path d="M379.77139,239.6158c-1.5781-.0437-2.9413,1.0877-3.18139,2.6481-1.209,7.8573-4.29751,29.6634,2.75759,31.6003,8.3768,2.2997,31.1181,3.8328,33.1623,0,1.6382-3.0716,1.5848-22.6086,1.499-30.2473-.0192-1.7095-1.3855-3.0923-3.0944-3.1396l-31.1431-.8615Z" style="opacity:.2;"></path></g><g><path d="M384.94589,451.3611c-.14089,1.5497,2.4506,8.5506,1.9132,14.0259-.1267,1.2762-.2438,2.4837-.3472,3.5427l-.0027,.0012c-.23,2.3514-.3907,3.9671-.3907,3.9671l-9.7242,.0844s-1.9747-1.0282-3.12829-.8789c-1.14961,.1509-5.14731,.9489-5.14731,.9489l-25.8221,.2225c.1969-1.0843,.4437-2.0496,.7266-2.9071,.3452-1.0451,.7486-1.9312,1.1986-2.6819,1.5774-2.6247,3.75221-3.5724,6.1247-3.7424,3.6137-.2581,9.3093-4.3683,9.3093-4.3683l-4.8849-34.6583,32.4184-.8281-2.2434,27.2723Z" style="fill:#263238;"></path><path d="M373.266,472.1035c1.15359-.1493,3.12829,.8788,3.12829,.8788l9.7241-.0844s.1608-1.6155,.3909-3.9669l.00271-.0013c.03789-.3883,.07939-.8151,.12089-1.2395-.9526,.1247-1.8703,.2712-1.8703,.2712l-6.3092-4.6267-4.2062-1.1216-2.94419,.5609-2.52381,1.8639-.84119,2.5732h-4.48651l-3.0173,1.3309c-4.7669-1.5423-5.7758-1.5621-5.7758-1.5621l-2.4557,1.6826c-.7334,0-7.6789,.9814-8.0995,1.1217l-.8423-.0815c-.0816,.2151-.1616,.4347-.2377,.665-.2829,.8576-.5297,1.8229-.7266,2.9072l25.8221-.2226s3.9977-.798,5.14731-.9488Z" style="opacity:.2;"></path><path d="M376.29149,460.1585l1.2812,1.2812h1.3239l.8968-1.2812-.81139-1.4093s-.51251-.5125-.64061-.5125-2.0499,1.9218-2.0499,1.9218Z" style="opacity:.2;"></path><polygon points="364.46469 463.0377 362.85049 464.1342 364.46469 465.4396 366.34889 465.4396 366.08789 463.8731 364.46469 463.0377" style="opacity:.2;"></polygon><polygon points="364.35939 461.5757 365.09929 462.2117 365.51869 461.2623 365.19549 460.7851 364.55079 460.6832 364.35939 461.5757" style="opacity:.2;"></polygon></g><g><path d="M441.68939,451.3611c-.1409,1.5497,2.4505,8.5506,1.9132,14.0259-.1267,1.2762-.2439,2.4837-.3472,3.5427l-.0027,.0012c-.23,2.3514-.3908,3.9671-.3908,3.9671l-9.7241,.0844s-1.9747-1.0282-3.1283-.8789c-1.1496,.1509-5.1473,.9489-5.1473,.9489l-25.8221,.2225c.19691-1.0843,.4437-2.0496,.7266-2.9071,.3451-1.0451,.7485-1.9312,1.1985-2.6819,1.5774-2.6247,3.7523-3.5724,6.12481-3.7424,3.61369-.2581,9.30929-4.3683,9.30929-4.3683l-4.8849-34.6583,32.4184-.8281-2.2434,27.2723Z" style="fill:#263238;"></path><path d="M430.00949,472.1035c1.1536-.1493,3.1283,.8788,3.1283,.8788l9.7241-.0844s.1608-1.6155,.3908-3.9669l.0027-.0013c.0379-.3883,.0795-.8151,.1209-1.2395-.9525,.1247-1.8702,.2712-1.8702,.2712l-6.3093-4.6267-4.2061-1.1216-2.9443,.5609-2.5237,1.8639-.8412,2.5732h-4.4866l-3.0172,1.3309c-4.7669-1.5423-5.7758-1.5621-5.7758-1.5621l-2.4557,1.6826c-.7334,0-7.6789,.9814-8.0995,1.1217l-.8423-.0815c-.0816,.2151-.1617,.4347-.2377,.665-.283,.8576-.52969,1.8229-.7266,2.9072l25.8221-.2226s3.9977-.798,5.1473-.9488Z" style="opacity:.2;"></path><path d="M433.03489,460.1585l1.2812,1.2812h1.32391l.89689-1.2812-.8114-1.4093s-.51249-.5125-.6406-.5125c-.1282,0-2.05,1.9218-2.05,1.9218Z" style="opacity:.2;"></path><polygon points="421.20819 463.0377 419.594 464.1342 421.20819 465.4396 423.09239 465.4396 422.83129 463.8731 421.20819 463.0377" style="opacity:.2;"></polygon><polygon points="421.10289 461.5757 421.84279 462.2117 422.26219 461.2623 421.93889 460.7851 421.29429 460.6832 421.10289 461.5757" style="opacity:.2;"></polygon></g></g></g></svg>
