<svg xmlns="http://www.w3.org/2000/svg" viewBox="0 0 500 500"><g id="freepik--Garden--inject-2"><path d="M382.22,412h6S387.61,386,400,361.61s9.19-39.85,1.83-33.7S383.82,369.24,382.22,412Z" style="fill:#263238"></path><path d="M381.81,409.21l-4.68,2.55c-9.88,5.37-21.49,5.81-33.32.86-7.09-3-13.27-7.54-13.87-14.52-1.46-17,19.1,5.52,19.71-4.39s-23.77-7.55-23.89-18.46,26.9,10.49,26-5.11-25.22-.43-25.65-12.15,24.2,1.48,25-8.71-25.23-1.4-23.3-13.18,26.4,12.47,29.77,2.83-29.63-6.92-22.3-18.05,23.85,7.84,28,3.45-16.13-8.77-13.49-15.06,12-7.41,22.36,1.92c11.91,10.78,20.52,25,18.84,33.73s-12.12-11.41-15.14-6.11c-6.4,11.24,15.95,14.45,16.88,24.92s-18.25-10.8-21.83-4.47c-6.68,11.84,27.4,13.43,24.25,21.08-3.63,8.8-27.3-8.44-28.38,2.63-1.6,16.54,21-2.43,24.52,8.75S381.81,409.21,381.81,409.21Z" style="fill:#FE8216"></path><path d="M381.81,409.21l-4.68,2.55c-9.88,5.37-21.49,5.81-33.32.86-7.09-3-13.27-7.54-13.87-14.52-1.46-17,19.1,5.52,19.71-4.39s-23.77-7.55-23.89-18.46,26.9,10.49,26-5.11-25.22-.43-25.65-12.15,24.2,1.48,25-8.71-25.23-1.4-23.3-13.18,26.4,12.47,29.77,2.83-29.63-6.92-22.3-18.05,23.85,7.84,28,3.45-16.13-8.77-13.49-15.06,12-7.41,22.36,1.92c11.91,10.78,20.52,25,18.84,33.73s-12.12-11.41-15.14-6.11c-6.4,11.24,15.95,14.45,16.88,24.92s-18.25-10.8-21.83-4.47c-6.68,11.84,27.4,13.43,24.25,21.08-3.63,8.8-27.3-8.44-28.38,2.63-1.6,16.54,21-2.43,24.52,8.75S381.81,409.21,381.81,409.21Z" style="fill:#fff;opacity:0.8"></path><path d="M341.26,414.21h-12a150.24,150.24,0,0,0-19.56-51.71c-16-26.21-5.14-35.24,7.22-27.9S338.05,371.47,341.26,414.21Z" style="fill:#FE8216"></path><path d="M341.26,414.21h-12a150.24,150.24,0,0,0-19.56-51.71c-16-26.21-5.14-35.24,7.22-27.9S338.05,371.47,341.26,414.21Z" style="opacity:0.2"></path><path d="M355.94,416.08h-15a166.44,166.44,0,0,0-13.6-64.79c-14.53-32.84,1-44.14,14.92-35S360.94,362.54,355.94,416.08Z" style="fill:#FE8216"></path><path d="M385,417H391s.6-17.78,13.07-29.93c11.4-11.1,3.15-15-4.36-10S385.16,402,385,417Z" style="fill:#FE8216"></path><path d="M320.23,416.08H308.82s3.7-13.7-1.6-32C317.83,393.22,320.33,407.66,320.23,416.08Z" style="fill:#FE8216"></path><path d="M312.37,416.08h-8.13s1-9.76-4.91-22.8C308,399.79,311.45,410.08,312.37,416.08Z" style="fill:#FE8216"></path><path d="M401.29,416.08h4.88s-.62-5.86,2.95-13.69C403.94,406.3,401.85,412.48,401.29,416.08Z" style="fill:#FE8216"></path><path d="M270.14,411.84h4.06s-.51-4.88,2.46-11.4A18.2,18.2,0,0,0,270.14,411.84Z" style="fill:#FE8216"></path><path d="M270.14,411.84h4.06s-.51-4.88,2.46-11.4A18.2,18.2,0,0,0,270.14,411.84Z" style="fill:#fff;opacity:0.6000000000000001"></path><path d="M98.4,411.84H90.24s1-9.8-4.94-22.92C94,395.47,97.48,405.81,98.4,411.84Z" style="fill:#FE8216"></path><path d="M98.4,411.84H90.24s1-9.8-4.94-22.92C94,395.47,97.48,405.81,98.4,411.84Z" style="opacity:0.2"></path><path d="M100.86,416.37h4.33s-.55-5.19,2.61-12.13C103.21,407.71,101.35,413.18,100.86,416.37Z" style="fill:#FE8216"></path><path d="M100.86,416.37h4.33s-.55-5.19,2.61-12.13C103.21,407.71,101.35,413.18,100.86,416.37Z" style="fill:#fff;opacity:0.2"></path><polygon points="124.46 306.91 116.33 292.33 108.15 308.53 109.7 410.41 122.96 410.41 124.46 306.91" style="fill:#FE8216"></polygon><polygon points="124.46 306.91 116.33 292.33 108.15 308.53 109.7 410.41 122.96 410.41 124.46 306.91" style="fill:#fff;opacity:0.6000000000000001"></polygon><polygon points="137.1 312.14 145.23 292.33 153.41 308.53 151.86 410.41 138.6 410.41 137.1 312.14" style="fill:#FE8216"></polygon><polygon points="137.1 312.14 145.23 292.33 153.41 308.53 151.86 410.41 138.6 410.41 137.1 312.14" style="fill:#fff;opacity:0.6000000000000001"></polygon><polygon points="169.78 306.91 177.91 292.33 186.09 308.53 184.54 410.41 171.28 410.41 169.78 306.91" style="fill:#FE8216"></polygon><polygon points="169.78 306.91 177.91 292.33 186.09 308.53 184.54 410.41 171.28 410.41 169.78 306.91" style="fill:#fff;opacity:0.6000000000000001"></polygon><polygon points="222.25 312.14 214.12 292.33 205.94 308.53 207.49 410.41 220.75 410.41 222.25 312.14" style="fill:#FE8216"></polygon><polygon points="222.25 312.14 214.12 292.33 205.94 308.53 207.49 410.41 220.75 410.41 222.25 312.14" style="fill:#fff;opacity:0.6000000000000001"></polygon><g style="opacity:0.5"><polygon points="108.72 346.07 123.9 345.37 124.13 329.29 108.48 330.26 108.72 346.07" style="fill:#FE8216"></polygon><polygon points="137.6 344.75 152.87 344.05 153.12 327.49 137.35 328.46 137.6 344.75" style="fill:#FE8216"></polygon><polygon points="170.31 343.25 185.57 342.54 185.83 325.46 170.07 326.44 170.31 343.25" style="fill:#FE8216"></polygon><polygon points="206.18 324.2 206.44 341.58 221.81 340.88 222.09 323.22 206.18 324.2" style="fill:#FE8216"></polygon></g><polygon points="226.49 335.48 97.13 341.42 96.89 325.8 227.45 317.7 226.49 335.48" style="fill:#FE8216"></polygon><polygon points="226.49 335.48 97.13 341.42 96.89 325.8 227.45 317.7 226.49 335.48" style="fill:#fff;opacity:0.6000000000000001"></polygon></g></svg>